# xmcd
#
# Track frame offsets:
#	150
#	15793
#	59937
#	75784
#	104314
#	132581
#	150532
#	177101
#
# Disc length: 2706 seconds
# Revision: 0
# Processed by: cddbd v1.5.2PL0 Copyright (c) Steve Scherf et al.
# Submitted via: dBpowerAMP V12.0
#
DISCID=570a9008
DTITLE=MAW Presents India - To Be In Love ’99
DYEAR=1999
DGENRE=House
TTITLE0=To Be In Love ’99 [Full Intention Radio Mix]
TTITLE1=To Be In Love ’99 [Full Intention Club Mix]
TTITLE2=To Be In Love ’99 [Masters At Work Radio Mix]
TTITLE3=To Be In Love ’99 [Full Intention Dub]
TTITLE4=To Be In Love ’99 [Full Intention Club Edit]
TTITLE5=To Be In Love ’99 [Masters At Work Video Mix]
TTITLE6=To Be In Love ’99 [MJ Cole Vox]
TTITLE7=To Be In Love ’99 [MJ Cole Dub]
EXTD=
EXTT0=
EXTT1=
EXTT2=
EXTT3=
EXTT4=
EXTT5=
EXTT6=
EXTT7=
PLAYORDER=
